<?xml version="1.0" standalone="no"?>
<!DOCTYPE svg PUBLIC "-//W3C//DTD SVG 20010904//EN"
 "http://www.w3.org/TR/2001/REC-SVG-20010904/DTD/svg10.dtd">
<svg version="1.0" xmlns="http://www.w3.org/2000/svg"
 width="152.000000pt" height="152.000000pt" viewBox="0 0 152.000000 152.000000"
 preserveAspectRatio="xMidYMid meet">
<metadata>
Created by potrace 1.16, written by Peter Selinger 2001-2019
</metadata>
<g transform="translate(0.000000,152.000000) scale(0.100000,-0.100000)"
fill="#000000" stroke="none">
<path d="M512 1285 c-196 -44 -372 -198 -372 -327 0 -38 5 -50 26 -67 31 -25
55 -26 93 -6 28 14 81 69 81 83 0 4 -10 12 -22 17 -32 14 -36 65 -8 109 55 90
169 156 281 164 119 8 155 -22 147 -125 -9 -107 -84 -219 -180 -267 -46 -23
-108 -35 -108 -21 0 29 135 247 179 289 38 36 40 56 6 56 -34 0 -114 -75 -163
-154 -22 -33 -76 -132 -122 -218 -128 -241 -205 -329 -302 -344 -44 -8 -48
-23 -18 -71 22 -37 53 -48 113 -40 62 8 103 61 208 269 l90 178 40 0 c73 0
108 -31 109 -96 0 -55 -33 -103 -92 -132 -71 -36 -112 -11 -89 52 13 34 1 33
-31 -1 -37 -41 -50 -70 -51 -120 0 -55 26 -93 79 -112 58 -20 114 -2 179 60
75 71 117 161 123 261 4 76 4 78 -27 109 -18 17 -31 32 -29 33 2 2 19 13 38
26 97 65 143 134 143 215 0 142 -141 221 -321 180z"/>
<path d="M1437 1148 c-29 -8 -41 -18 -51 -43 -8 -19 -26 -41 -40 -51 -27 -17
-72 -17 -282 2 -129 12 -242 -42 -296 -143 -48 -88 -49 -176 -2 -232 50 -59
136 -61 204 -5 28 24 66 81 58 89 -2 2 -22 -2 -45 -8 -84 -22 -129 29 -94 108
31 69 90 94 250 106 69 4 143 11 164 15 l37 6 -19 -49 c-10 -26 -29 -73 -41
-103 -12 -30 -27 -60 -33 -66 -7 -6 -44 -17 -84 -23 -47 -8 -73 -18 -77 -28
-10 -25 0 -27 66 -15 34 6 64 9 67 6 7 -7 -54 -128 -105 -207 -86 -132 -176
-193 -274 -186 -47 4 -60 -9 -60 -58 0 -23 8 -38 28 -53 60 -48 224 -2 298 83
40 47 103 166 175 332 48 111 59 123 111 124 23 1 48 24 48 45 0 3 -21 3 -46
-1 -45 -6 -46 -6 -39 18 6 18 84 204 142 337 6 14 -7 14 -60 0z"/>
</g>
</svg>
